<?xml version="1.0" standalone="no"?>
<!DOCTYPE svg PUBLIC "-//W3C//DTD SVG 20010904//EN"
 "http://www.w3.org/TR/2001/REC-SVG-20010904/DTD/svg10.dtd">
<svg version="1.0" xmlns="http://www.w3.org/2000/svg"
 width="500.000000pt" height="500.000000pt" viewBox="0 0 500.000000 500.000000"
 preserveAspectRatio="xMidYMid meet">

<g transform="translate(0.000000,500.000000) scale(0.100000,-0.100000)"
fill="#000000" stroke="none">
<path d="M2400 4096 c-188 -42 -331 -136 -428 -280 -92 -138 -125 -262 -121
-460 l3 -128 -31 -13 c-114 -48 -35 -352 101 -386 38 -9 43 -14 60 -62 53
-152 228 -364 353 -430 130 -68 244 -71 371 -9 138 67 293 261 380 475 8 18
19 27 34 27 12 0 36 10 53 22 119 81 163 348 62 373 -22 6 -23 9 -22 153 0
173 -10 221 -71 349 -68 141 -194 265 -331 324 -125 54 -292 72 -413 45z"/>
<path d="M2867 2314 c-105 -97 -223 -140 -362 -131 -44 3 -106 14 -137 25 -61
22 -158 84 -197 126 -14 14 -28 26 -31 26 -4 0 -8 -28 -8 -63 -2 -111 -18
-130 -185 -223 -333 -186 -449 -257 -560 -345 l-48 -38 103 -52 c254 -128 444
-190 728 -240 106 -19 354 -28 510 -19 332 19 590 86 878 227 152 74 154 75
135 95 -41 46 -232 179 -348 243 -156 85 -321 180 -345 198 -39 29 -60 68 -61
112 0 22 -3 56 -7 77 l-7 36 -58 -54z"/>
</g>
</svg>
