<?xml version="1.0" standalone="no"?>
<!DOCTYPE svg PUBLIC "-//W3C//DTD SVG 20010904//EN"
 "http://www.w3.org/TR/2001/REC-SVG-20010904/DTD/svg10.dtd">
<svg version="1.0" xmlns="http://www.w3.org/2000/svg"
 width="128.000000pt" height="128.000000pt" viewBox="0 0 128.000000 128.000000"
 preserveAspectRatio="xMidYMid meet">

<g transform="translate(0.000000,128.000000) scale(0.100000,-0.100000)"
fill="#000000" stroke="none">
<path d="M427 1067 c-171 -95 -269 -293 -238 -481 34 -205 189 -362 392 -396
148 -25 298 28 406 144 62 66 103 136 103 176 0 22 -2 22 -47 14 -27 -5 -88
-9 -138 -9 -80 1 -98 4 -157 32 -88 41 -160 113 -201 201 -29 60 -32 76 -32
157 1 50 5 114 9 143 9 51 8 52 -15 52 -13 0 -50 -15 -82 -33z m23 -144 c1
-276 195 -473 466 -473 46 0 84 -4 84 -9 0 -5 -22 -34 -49 -64 -93 -101 -237
-152 -364 -129 -275 51 -419 336 -297 588 28 58 125 164 149 164 7 0 11 -30
11 -77z"/>
</g>
</svg>
